<?xml version="1.0" standalone="no"?>
<!DOCTYPE svg PUBLIC "-//W3C//DTD SVG 20010904//EN"
 "http://www.w3.org/TR/2001/REC-SVG-20010904/DTD/svg10.dtd">
<svg version="1.0" xmlns="http://www.w3.org/2000/svg"
 width="390.000000pt" height="390.000000pt" viewBox="0 0 390.000000 390.000000"
 preserveAspectRatio="xMidYMid meet">

<g transform="translate(0.000000,390.000000) scale(0.100000,-0.100000)"
fill="#000000" stroke="none">
<path d="M710 3471 c-48 -15 -87 -40 -123 -80 -71 -79 -68 6 -65 -1492 l3
-1344 30 -54 c17 -30 48 -67 69 -83 82 -59 59 -58 1000 -58 l861 0 50 24 c73
34 140 110 154 175 8 37 11 453 11 1436 l0 1384 -43 37 c-75 65 -47 63 -1032
63 -490 -1 -901 -4 -915 -8z m1751 -221 c19 -11 19 -36 19 -1325 0 -1289 0
-1314 -19 -1325 -21 -11 -1666 -15 -1695 -4 -14 6 -16 131 -16 1323 0 1011 3
1320 12 1329 16 16 1669 17 1699 2z"/>
<path d="M1074 978 c-49 -23 -60 -118 -19 -162 l24 -26 514 0 c505 0 515 0
541 21 22 18 26 28 26 75 0 45 -4 59 -25 79 l-24 25 -508 -1 c-328 0 -516 -4
-529 -11z"/>
<path d="M2795 3467 c-3 -7 -4 -56 -3 -108 l3 -94 216 -3 c166 -2 219 -6 228
-16 8 -9 10 -377 9 -1332 l-3 -1319 -215 -5 c-118 -3 -221 -9 -227 -13 -9 -6
-13 -37 -13 -97 0 -129 -15 -122 264 -118 l231 3 53 29 c64 36 103 83 126 152
15 46 16 165 14 1400 l-3 1349 -22 41 c-27 50 -75 97 -122 121 -31 16 -70 18
-284 21 -204 3 -248 1 -252 -11z"/>
</g>
</svg>
